<?xml version="1.0" standalone="no"?>
<!DOCTYPE svg PUBLIC "-//W3C//DTD SVG 20010904//EN"
 "http://www.w3.org/TR/2001/REC-SVG-20010904/DTD/svg10.dtd">
<svg version="1.0" xmlns="http://www.w3.org/2000/svg"
 width="620.000000pt" height="117.000000pt" viewBox="0 0 620.000000 117.000000"
 preserveAspectRatio="xMidYMid meet">
<metadata>
Created by potrace 1.16, written by Peter Selinger 2001-2019
</metadata>
<g transform="translate(0.000000,117.000000) scale(0.100000,-0.100000)"
fill="#000000" stroke="none">
<path d="M1709 1000 c-12 -7 -18 -31 -23 -87 -4 -43 -9 -103 -12 -134 l-6 -57
-81 -12 c-127 -19 -199 -57 -233 -122 -62 -119 84 -239 272 -225 81 6 126 25
151 64 16 24 18 60 21 299 l4 271 -24 6 c-32 9 -50 8 -69 -3z m-56 -406 c20
-6 22 -39 5 -95 -10 -37 -14 -39 -50 -39 -78 0 -158 66 -131 108 21 34 106 46
176 26z"/>
<path d="M377 973 c-9 -9 -8 -537 1 -588 7 -38 9 -40 49 -43 51 -4 73 22 73
86 0 76 46 141 112 157 38 10 54 -22 63 -120 7 -89 24 -125 58 -125 40 0 67
39 67 98 0 107 -37 214 -84 245 -32 21 -71 21 -148 1 -33 -8 -62 -13 -64 -11
-2 2 -11 62 -20 133 -17 143 -30 174 -73 174 -15 0 -31 -3 -34 -7z"/>
<path d="M4273 968 c-10 -17 -17 -421 -8 -501 9 -90 21 -101 109 -105 132 -7
250 39 303 117 48 71 17 203 -57 246 -29 16 -53 20 -136 20 l-102 0 -7 105
c-4 58 -12 111 -17 118 -6 6 -25 12 -44 12 -18 0 -36 -6 -41 -12z m282 -354
c33 -36 34 -92 3 -122 -77 -71 -178 -45 -178 46 0 43 16 62 70 86 51 22 78 19
105 -10z"/>
<path d="M4821 948 c-9 -24 -36 -284 -47 -450 -7 -94 -6 -97 19 -122 32 -32
86 -35 112 -6 14 16 15 24 6 51 -7 20 -11 123 -11 278 0 179 -3 250 -12 259
-20 20 -58 14 -67 -10z"/>
<path d="M3723 851 c-29 -18 -54 -61 -125 -218 -6 -11 -28 -29 -49 -39 -58
-26 -69 -43 -41 -63 65 -45 72 -56 83 -116 14 -82 31 -105 74 -105 45 0 55 20
55 108 l0 70 54 7 c64 7 106 36 106 71 0 29 -31 44 -94 44 -65 0 -71 15 -35
90 17 36 35 68 41 71 6 4 27 5 48 2 69 -10 104 32 59 73 -31 28 -134 31 -176
5z"/>
<path d="M144 819 c-42 -12 -101 -79 -109 -122 -9 -48 5 -69 85 -127 75 -56
82 -65 67 -97 -16 -35 -43 -38 -78 -9 -82 70 -155 -12 -74 -83 32 -28 42 -31
102 -31 l66 0 54 53 c48 49 53 58 53 99 0 56 -20 83 -100 134 -63 41 -75 65
-40 84 16 9 19 8 13 -6 -5 -15 -1 -16 31 -11 62 10 93 46 34 40 l-33 -4 38 17
c27 12 37 22 37 39 0 13 -7 26 -16 29 -22 8 -93 6 -130 -5z"/>
<path d="M2405 778 c-89 -89 -84 -119 30 -208 78 -60 85 -74 58 -101 l-21 -21
-39 22 c-25 14 -52 20 -74 18 -31 -3 -34 -6 -37 -37 -6 -64 83 -122 165 -106
38 7 107 64 129 106 33 66 0 129 -103 195 -58 37 -61 48 -22 73 18 11 21 11
12 1 -7 -8 -13 -18 -13 -23 0 -10 6 -8 90 22 l55 20 -50 1 -50 1 38 20 c29 15
38 25 35 42 -3 20 -10 22 -77 25 l-73 3 -53 -53z"/>
<path d="M1995 776 c-46 -20 -96 -66 -111 -103 -21 -49 -18 -156 5 -201 49
-96 153 -135 260 -97 68 24 101 52 101 86 0 40 -16 44 -102 24 -86 -20 -119
-12 -143 35 -20 38 -13 50 30 50 75 0 139 22 178 60 20 21 37 47 37 57 0 29
-38 73 -76 89 -42 17 -139 17 -179 0z"/>
<path d="M5736 775 c-22 -8 -60 -34 -85 -59 -43 -43 -45 -49 -49 -111 -6 -83
15 -141 68 -189 22 -20 55 -38 75 -42 118 -22 283 52 232 104 -13 13 -24 13
-73 4 -89 -18 -127 -15 -151 11 -27 30 -45 65 -38 76 3 5 47 13 98 17 88 7 93
8 125 41 59 63 36 128 -53 152 -53 14 -101 13 -149 -4z"/>
<path d="M965 771 c-60 -15 -90 -35 -90 -61 l0 -25 88 3 c90 4 141 -7 151 -34
7 -19 -24 -34 -71 -34 -43 0 -110 -28 -135 -56 -10 -11 -25 -37 -33 -58 -15
-36 -15 -42 -1 -80 22 -55 54 -76 137 -88 85 -13 212 3 249 31 32 24 32 50 -7
214 -33 144 -51 172 -119 187 -45 11 -126 11 -169 1z"/>
<path d="M5026 718 c-8 -13 -19 -70 -26 -127 l-12 -104 51 -51 51 -51 85 0 84
0 59 58 59 59 32 -56 c33 -60 63 -76 100 -56 26 13 26 37 2 115 -10 33 -22 85
-26 114 -10 71 -48 114 -97 109 -30 -3 -36 -10 -68 -73 -46 -93 -73 -129 -116
-156 -30 -18 -39 -20 -61 -10 -25 12 -25 12 -18 104 6 85 5 95 -15 120 -26 33
-64 36 -84 5z"/>
<path d="M3135 705 c-106 -43 -178 -149 -161 -238 10 -55 58 -112 110 -132 94
-36 251 8 301 83 30 45 49 131 42 184 -7 54 -37 83 -105 101 -104 28 -123 28
-187 2z m129 -92 l38 -6 -5 -66 c-4 -57 -9 -69 -36 -93 -40 -35 -96 -38 -136
-6 -25 19 -27 26 -23 76 8 89 50 114 162 95z"/>
</g>
</svg>
